<svg t="1631848110712" class="icon" viewBox="0 0 2714 1024" version="1.1" xmlns="http://www.w3.org/2000/svg" p-id="2341"
    width="300" height="300">
    <path
        d="M1508.302463 714.924985c3.629061 1.209687 7.258122 1.512109 10.887183 1.814531m-0.302422-0.302422c6.048435 0.302422 12.096869-2.116952 16.633196-6.350857-8.165387 39.314826-18.750148 88.911991-29.939752 131.553456-0.302422 0.907265 0.302422 2.116952 1.209687 2.419374 0.302422 0.302422 0.604843 0.302422 1.209687 0.302421s1.209687-0.302422 1.512108-0.604843c0.302422-0.302422 23.891317-25.705848 48.085056-34.7785 0.907265-0.302422 1.512109-0.907265 1.512109-1.81453 0-1.209687 13.608978-110.686356 28.427643-178.126403 17.540461-88.004725 52.016539-196.271707 115.525104-334.780862-47.480213 110.686356-66.835204 216.231542-94.355582 333.571175-0.302422 0.907265 0.302422 2.116952 1.209687 2.419374 0.907265 0.604843 2.116952 0.302422 2.721795-0.604843 19.052569-13.9114 29.334908-21.169522 48.387478-38.105139 17.540461-17.238039 34.476078-32.661548 52.016539-53.226226 84.073243-95.565269 152.420555-242.239811 168.751329-389.519197 0-0.907265-0.604843-2.116952-1.512109-2.419374-11.492026-3.931483-27.217956-10.887183-38.40756-10.887182h-6.9557c14.818665-7.560543 35.383343-13.306556 47.480212-16.330774 0.907265-0.302422 1.512109-1.209687 1.814531-2.116952 3.024217-38.407561 2.419374-77.117543-1.814531-115.222682 0-0.604843-0.604843-1.512109-1.209686-1.81453h-0.604844c-0.302422 0-0.604843 0-0.907265 0.302422-20.8671 10.887183-74.093325 46.270526-128.226816 103.428234-40.222091 42.339043-74.698169 89.516834-103.125813 140.626107-36.290608 65.927939-62.601299 136.694625-78.024808 210.183107-0.302422 0.907265 0 1.81453 0.907266 2.419374 8.467809 6.9557 19.354991 14.516243 26.008269 22.984052-10.584761-2.721796-20.262256-2.721796-27.8228-2.116952-1.209687 0-2.116952 0.907265-2.419374 1.81453-10.282339 54.133491-15.72593 99.799173-16.330774 154.537508-0.907265 4.233904-2.116952 10.887183-3.62906 19.052569-5.14117-1.81453-10.282339-2.721796-15.725931-2.721796-22.076787 0-40.222091 16.028352-40.222091 35.685765 0 12.096869 5.443591 25.705848 17.238039 29.032487m7.862965-12.399291c-7.560543-2.419374-10.887183-12.399291-7.862965-21.774365s11.794448-15.121087 19.05257-12.701713c7.560543 2.419374 10.887183 12.399291 7.862965 21.774365-3.024217 9.677496-11.492026 15.121087-19.05257 12.701713z"
        fill="#333333" p-id="2342"></path>
    <path
        d="M583.799215 498.0886c0.907265 0 1.512109-0.604843 2.116952-1.209687l27.8228-52.621382c0.604843-1.209687 0-2.721796-1.209687-3.024217h-0.302422c-13.004135-3.629061-26.310691-5.14117-39.617248-4.838748-76.210278 0-124.295334 49.899587-143.045481 74.093325l19.354991-61.391612c0.302422-0.604843 0-1.512109-0.302422-2.116952-0.302422-0.604843-1.209687-0.907265-1.81453-0.907266h-52.923804c-0.907265 0-1.81453 0.604843-2.116952 1.512109-6.350856 21.471943-11.492026 39.314826-15.72593 54.738334-6.9557 23.891317-12.096869 42.943887-18.750148 63.508565l-82.561134 260.687537c-0.302422 0.604843 0 1.512109 0.302422 2.116952 0.302422 0.604843 1.209687 0.907265 1.81453 0.907265h53.528647c0.907265 0 1.81453-0.604843 2.116953-1.512108l67.742469-213.812168c16.028352-49.899587 74.395747-120.061429 154.235085-120.061429 16.633196 0 24.496161 2.116952 28.427643 3.931482h0.907266zM848.720656 436.092144c-109.77909-0.302422-220.163024 86.190195-256.756054 200.505611-18.750148 58.367395-13.9114 111.291199 13.608978 148.791495 25.403426 34.476078 68.347312 53.528647 121.271116 53.528647 66.835204 0 130.948612-27.217956 190.223272-80.746603 0.907265-0.907265 0.907265-2.116952 0.302422-3.32664l-30.544595-33.871234c-0.302422-0.604843-0.907265-0.604843-1.512109-0.604844s-1.209687 0.302422-1.512109 0.604844c-29.63733 31.451861-81.956291 65.020673-140.626107 65.020673-33.266391 0-60.484347-11.794448-78.024808-33.871234-19.354991-24.496161-25.403426-58.972239-16.935617-97.682221h314.821027c0.907265 0 1.81453-0.604843 2.116952-1.512109l8.467809-24.193739c18.145304-57.46013 14.213822-108.266982-11.492026-143.650325-22.984052-31.754282-62.298878-48.6899-113.408151-48.992321z m68.347312 169.961016H665.453084c9.979917-28.427643 33.568813-57.46013 65.323095-80.14176 32.963969-23.588895 70.464265-36.895452 103.125812-36.895452 35.383343 0 61.694034 10.584761 76.512699 30.544595 15.121087 20.8671 17.540461 50.806852 6.653278 86.492617zM266.861235 445.76964H179.763775l29.939752-94.355582c17.842882-57.46013 41.129356-95.565269 97.984642-95.565269 13.306556 0.302422 26.310691 2.116952 39.012404 5.443591h0.604844c0.907265 0 1.81453-0.604843 2.116952-1.81453l12.701713-48.387478c0.302422-0.604843 0-1.209687-0.302422-1.81453-0.302422-0.604843-0.907265-0.907265-1.512109-0.907266-3.931483-0.907265-6.9557-1.81453-9.677495-2.419373-7.560543-2.419374-15.423509-3.629061-23.286474-3.32664-85.887773 0-144.255168 47.480213-173.892498 140.92853l-32.661548 102.218547h-78.629652c-0.907265 0-1.81453 0.604843-2.116952 1.512108L24.621424 495.971648c-0.302422 0.604843 0 1.512109 0.302421 2.116952 0.302422 0.604843 1.209687 0.907265 1.814531 0.907265h77.419964L0.125263 826.518606c-0.302422 0.604843 0 1.512109 0.302422 2.116952 0.302422 0.604843 1.209687 0.907265 1.81453 0.907265h53.831069c0.907265 0 1.81453-0.604843 2.116953-1.512108L162.223314 498.995865h88.609569c0.907265 0 1.81453-0.604843 2.116952-1.512108l16.028352-48.6899c0.302422-0.604843 0-1.512109-0.302422-2.116952-0.604843-0.604843-1.209687-0.907265-1.81453-0.907265zM1304.772635 436.092144c-109.77909 0-220.163024 86.492617-256.756055 200.808033-18.750148 58.367395-13.608978 111.291199 13.608978 148.791495 25.403426 34.476078 68.347312 53.528647 121.271117 53.528647 66.835204 0 130.948612-27.217956 190.223272-80.746604 0.907265-0.907265 0.907265-2.116952 0.302422-3.326639L1342.877773 721.275842c-0.302422-0.604843-0.907265-0.604843-1.512108-0.604844s-1.209687 0.302422-1.512109 0.604844c-29.63733 31.451861-81.956291 65.020673-140.626107 65.020673-33.266391 0-60.484347-11.794448-78.024808-33.871234-19.354991-24.496161-25.403426-58.972239-16.935618-97.682221h314.821028c0.907265 0 1.81453-0.604843 2.116952-1.512109l8.467809-24.193739c18.145304-57.46013 14.213822-108.266982-11.492026-143.650325-23.286474-32.056704-62.298878-48.992321-113.408151-49.294743z m68.04489 169.961016h-251.614884c9.979917-28.427643 33.568813-57.46013 65.323095-80.14176 32.963969-23.588895 70.766686-36.895452 103.125812-36.895452 35.383343 0 61.694034 10.584761 76.512699 30.544595 15.121087 20.8671 17.540461 50.806852 6.653278 86.492617zM2711.940975 445.76964H2658.412327c-0.907265 0-1.81453 0.604843-2.116952 1.512108l-19.052569 59.577082c-10.887183-24.496161-29.939752-44.455995-54.133491-56.250443-19.657413-9.677496-43.54873-14.516243-70.766686-14.516243l0.302421-0.302422c-54.133491 0-110.383934 20.262256-157.864146 57.157709-46.572947 35.988187-81.049025 84.678086-99.799173 140.323685-17.238039 54.133491-11.794448 104.033077 14.818665 140.323686 26.310691 35.685765 70.464265 55.343178 124.597755 55.343178 42.943887 0 105.242764-11.794448 161.79563-67.742469l-19.05257 61.694034c-14.516243 44.153574-36.895452 79.234495-66.23036 104.335499-33.871234 28.730065-76.512699 43.246308-127.01713 43.246309-57.762552 0-103.125812-25.403426-121.271116-68.347313-0.302422-0.604843-0.907265-1.209687-1.512109-1.209687h-0.604843c-0.604843 0-0.907265 0.302422-1.512109 0.604844L2165.464897 943.555818c-0.907265 0.604843-1.209687 2.116952-0.604844 3.024217 32.661548 52.621382 83.770821 77.117543 160.585943 77.117543 178.126403 0 245.264028-124.900177 269.457767-199.295924l119.154164-375.607797v-0.907265c0-0.907265-0.907265-2.116952-2.116952-2.116952zM2599.440089 632.061429c-25.101004 90.424099-115.525103 144.255168-188.408742 144.255169-34.7785 0-63.810986-13.306556-81.351447-37.500296-19.657413-26.915535-23.588895-65.323095-10.887183-105.545186 12.096869-38.407561 38.105139-74.395747 72.581217-101.613703s75.000591-42.641465 112.500886-42.641465c39.012404 0 68.952156 12.701713 86.492617 36.895452 19.052569 26.613113 22.379209 64.113408 9.072652 106.150029zM2180.585984 491.1329c-26.008269-35.685765-71.37153-55.343178-127.924395-55.343178-117.339634 0-229.235676 84.375665-266.43355 200.808033-18.447726 57.762552-13.608978 110.383934 13.608978 147.581808 25.705848 35.383343 70.766686 54.738334 126.412286 54.738334 118.246899 0 230.747785-84.375665 267.945659-200.808033 18.447726-57.46013 13.608978-109.77909-13.608978-146.976964z m-322.986415 258.570585c-19.657413-26.915535-22.68163-66.532782-8.165387-111.291199 28.125222-87.702304 105.545186-149.093916 188.408742-149.093916 38.407561 0 68.044891 12.701713 85.585351 36.59303 19.657413 26.915535 22.68163 66.532782 8.165387 111.291199-13.306556 41.431778-38.105139 78.32723-71.976373 106.150029-34.7785 28.125222-75.303012 42.943887-117.339634 42.943887-38.105139-0.302422-67.440047-13.004135-84.678086-36.59303z"
        fill="#333333" p-id="2343"></path>
</svg>